PathFileType	4	(X/Y/Z)	E:\Qualisys_Data\Carbon_Farble_Plate\Data\Amateur_Runner\S1\T3\S1T3V22_c3d.trc
DataRate	CameraRate	NumFrames	NumMarkers	Units	OrigDataRate	OrigDataStartFrame	OrigNumFrames
200.000000	200.000000	4	39	mm	200.000000	185	297
Frame#	Time	LSHO			RSHO			LICST			RICST			LASIS			LHEEL			RASIS			LTROC			RTROC			SACR			LTH1			LSK4			LTH2			LTH3			RHM5			LSK2			LTH4			RTH1			LTOE			RTH2			RTH3			RTH4			LLEP			RLEP			LSK1			LSK3			RSK1			LHM5			RSK2			LFT1			RSK3			RSK4			LLME			RLME			RTOE			RHEEL			RFT1			RFT2			LFT2			
		X1	Y1	Z1	X2	Y2	Z2	X3	Y3	Z3	X4	Y4	Z4	X5	Y5	Z5	X6	Y6	Z6	X7	Y7	Z7	X8	Y8	Z8	X9	Y9	Z9	X10	Y10	Z10	X11	Y11	Z11	X12	Y12	Z12	X13	Y13	Z13	X14	Y14	Z14	X15	Y15	Z15	X16	Y16	Z16	X17	Y17	Z17	X18	Y18	Z18	X19	Y19	Z19	X20	Y20	Z20	X21	Y21	Z21	X22	Y22	Z22	X23	Y23	Z23	X24	Y24	Z24	X25	Y25	Z25	X26	Y26	Z26	X27	Y27	Z27	X28	Y28	Z28	X29	Y29	Z29	X30	Y30	Z30	X31	Y31	Z31	X32	Y32	Z32	X33	Y33	Z33	X34	Y34	Z34	X35	Y35	Z35	X36	Y36	Z36	X37	Y37	Z37	X38	Y38	Z38	X39	Y39	Z39	

186	0.925	682.091064453125	1501.2568359375	-536.7111206054688	711.4545288085938	1475.995361328125	-210.1901397705078	670.6066284179688	1022.433166503906	-510.2022399902344	679.2896118164062	1033.642700195312	-210.3345947265625	722.418701171875	986.8458862304688	-483.4764099121094	555.3798828125	327.5777282714844	-419.4198913574219	716.2246704101562	983.6989135742188	-220.0692291259766	628.3263549804688	901.8811645507812	-533.034912109375	596.8786010742188	902.3046264648438	-193.8793334960938	556.63671875	1042.393188476562	-355.3672790527344	819.3759765625	841.9115600585938	-502.4864501953125	670.9756469726562	435.9214782714844	-454.4526672363281	762.8375854492188	787.323974609375	-537.847900390625	887.1392211914062	762.7615966796875	-496.3582763671875	431.7830810546875	62.2955207824707	-249.416748046875	744.2366333007812	499.4599914550781	-492.4248657226562	825.4512329101562	709.378173828125	-522.8756103515625	701.231201171875	755.4990234375	-224.9640350341797	737.7512817382812	156.1615447998047	-433.7902221679688	628.009033203125	765.6641235351562	-192.4137878417969	680.3448486328125	656.890380859375	-239.9502410888672	604.4452514648438	670.412109375	-212.4783172607422	925.0313720703124	603.4185791015625	-490.2322387695312	587.4847412109375	501.4561157226562	-261.9916381835938	797.9130859375	435.8626098632812	-486.1725769042969	718.3994140625	373.9874267578125	-478.9961242675781	488.4224548339844	337.8359375	-248.7126007080078	669.2730712890625	186.3715209960938	-490.38720703125	419.9494934082031	381.5682373046875	-252.1093902587891	547.9035034179688	301.1309204101562	-387.69873046875	435.8656005859375	252.91015625	-260.8386535644531	369.1114807128906	297.71142578125	-275.6990966796875	610.0574951171875	313.5760192871094	-468.3018493652344	336.6883850097656	162.4662475585938	-259.2926940917969	484.50439453125	56.47246170043945	-323.0090637207031	247.6276397705078	137.2722778320312	-300.9461669921875	249.7516021728516	108.690315246582	-330.6543273925781	243.7682037353516	115.0996551513672	-277.6159362792969	537.2105102539062	299.3360900878906	-439.6329345703125
187	0.93	700.4514770507812	1504.735717773438	-537.545166015625	733.7470092773438	1481.026245117188	-211.8811340332031	695.8829345703125	1028.959594726562	-508.9562072753906	702.2587280273438	1036.347778320312	-211.2604522705078	743.6005249023438	992.07421875	-484.4117431640625	591.5849609375	315.5068664550781	-421.4137878417969	738.8357543945312	985.9116821289062	-221.0794525146484	651.593017578125	907.1510620117188	-534.5869140625	618.9730834960938	906.223876953125	-194.3491821289062	579.2022705078125	1046.3173828125	-355.4102172851562	842.4353637695312	847.9384155273438	-501.298095703125	701.601806640625	428.8209228515625	-454.85791015625	786.6019897460938	793.3096923828125	-537.7750854492188	910.5701293945312	769.151611328125	-495.388427734375	433.1584167480469	63.17473983764648	-249.3198394775391	771.2377319335938	496.4076843261719	-492.5583190917969	849.0234985351562	715.2110595703125	-522.2281494140625	719.0075073242188	757.7879638671875	-226.1168823242188	782.08984375	152.6746978759766	-435.478759765625	646.5936889648438	770.0225830078125	-193.9571838378906	694.9561767578125	659.9794921875	-241.7191162109375	619.7589111328125	675.9699096679688	-214.2130432128906	947.8642578125	608.8816528320312	-489.9708557128906	598.3666381835938	507.0260620117188	-263.0199279785156	828.490966796875	435.3562316894531	-487.2330627441406	751.9652099609375	369.8164672851562	-480.4411315917969	496.6017761230469	344.5877990722656	-248.7134857177734	712.2153930664062	179.7421722412109	-492.4698486328125	428.890625	388.8455810546875	-252.4637145996094	584.6181030273438	288.095947265625	-389.6676635742188	443.3284606933594	259.7566223144531	-260.4541625976562	377.1419677734375	305.2209167480469	-275.9823913574219	646.9239501953125	303.9253234863281	-469.9111328125	343.3593444824219	169.641357421875	-259.0330810546875	486.0332641601562	56.14580917358398	-322.6961059570312	252.5418701171875	144.4308776855469	-301.6734313964844	253.8685455322266	115.5574264526367	-330.7715759277344	248.7125396728516	122.0358200073242	-277.9110717773438	574.49072265625	287.1578979492188	-442.2054443359375
188	0.935	719.19970703125	1508.263305664062	-538.3856811523438	755.94482421875	1485.842529296875	-213.4413909912109	719.273193359375	1033.851928710938	-508.7434387207031	725.9912719726562	1039.337890625	-211.7931213378906	763.435302734375	995.9111938476562	-485.8069152832031	628.889892578125	303.2111206054688	-422.4017333984375	761.7954711914062	988.6109619140624	-222.2245941162109	674.5775146484375	912.320556640625	-536.004150390625	640.9356689453125	910.2158203125	-195.2356872558594	602.0111694335938	1050.918212890625	-355.6234130859375	865.7471313476562	853.3521728515625	-500.5752258300781	732.7342529296875	421.6749572753906	-455.455810546875	810.0872192382812	799.0985107421875	-537.8583374023438	933.6255493164062	774.723876953125	-494.3268432617188	435.3260498046875	63.85587310791016	-249.2411193847656	798.6997680664062	492.6094360351562	-492.8399963378906	872.3328857421875	720.9046020507812	-522.064697265625	736.9189453125	760.2179565429688	-227.2186431884766	826.6976928710938	149.4645843505859	-437.4482421875	664.8853149414062	774.6598510742188	-194.3115539550781	710.4605712890625	663.1456909179688	-243.2942504882812	635.937255859375	681.037109375	-215.0643463134766	970.3385620117188	613.9022827148438	-490.1554565429688	609.934814453125	513.0111083984375	-263.0482177734375	858.589111328125	434.4026489257812	-488.1005249023438	785.4472045898438	365.1296691894531	-481.282470703125	505.7179565429688	351.18017578125	-248.0634002685547	755.5098876953125	173.6847839355469	-494.2846069335938	438.2743835449219	396.1785278320312	-252.2324523925781	621.2615966796875	275.5301818847656	-391.778076171875	452.2770385742188	266.9945678710938	-259.7125854492188	386.2417297363281	313.0712890625	-276.5105895996094	684.0706176757812	294.9430236816406	-471.6480102539062	350.7859802246094	176.5080718994141	-258.646728515625	488.1701965332031	55.55948257446289	-322.1193542480469	259.0074768066406	152.7701263427734	-302.3646545410156	259.3970336914062	124.1932144165039	-331.4905395507812	253.9001770019531	129.1770172119141	-279.99853515625	612.7394409179688	274.0762634277344	-443.91796875
189	0.94	737.5618896484375	1511.612670898438	-539.2633666992188	778.1047973632812	1490.751220703125	-214.9993896484375	741.419677734375	1038.657592773438	-509.2914733886719	749.5482788085938	1042.098510742188	-212.5899047851562	786.1051025390625	1000.437072753906	-486.8080749511719	665.350341796875	291.0465393066406	-424.3986511230469	784.7667846679688	991.210693359375	-223.1066284179688	697.7822875976562	917.54736328125	-536.9419555664062	662.5648803710938	914.482666015625	-196.2296905517578	624.8027954101562	1055.402709960938	-355.870849609375	888.6441040039062	858.6952514648438	-499.9310913085938	763.6642456054688	413.7373657226562	-456.6761169433594	833.4401245117188	804.3974609375	-537.4019165039062	956.6873168945312	779.8305053710938	-493.2454223632812	438.2441711425781	64.99081420898438	-248.6175231933594	825.04443359375	489.4902648925781	-494.0931701660156	895.2363891601562	726.0199584960938	-521.474609375	755.0303344726562	762.9685668945312	-227.7230834960938	870.8800048828125	146.7776489257812	-439.1014404296875	683.4544677734375	779.2672729492188	-194.9972991943359	726.0936279296875	666.7131958007812	-243.9881286621094	651.77294921875	686.0900268554688	-215.8873291015625	992.364013671875	618.6433715820312	-489.9258728027344	621.6224975585938	518.784912109375	-263.1143188476562	889.089111328125	433.2201538085938	-488.7126159667969	819.2747802734375	360.9647216796875	-482.7236022949219	515.5526123046875	358.7123107910156	-247.5570831298828	799.0830688476562	168.0948944091797	-496.0324401855469	447.856201171875	403.4104309082031	-252.0926971435547	659.3470458984375	262.8050537109375	-393.6526489257812	461.7290649414062	274.2501220703125	-258.3368835449219	395.9225463867188	320.2059020996094	-276.49755859375	721.74560546875	285.1611328125	-473.0202941894531	359.3183288574219	183.4281158447266	-258.1533203125	490.3218994140625	54.90007400512695	-321.5202026367188	267.542236328125	163.2696533203125	-303.0113525390625	266.7177734375	134.8954162597656	-332.9642333984375	260.7646484375	140.6222686767578	-281.5157775878906	651.2864379882812	260.8730163574219	-445.6552429199219
